<svg xmlns="http://www.w3.org/2000/svg" version="1.0" width="1200" height="800" viewBox="-106.29915 -54.4575 921.2593 326.745"><path d="M368.26 0l20.853 60.807h.795L407.384.099h45.083l-52.133 139.234h-21.945l-21.102-57.976h-.844l-21.101 57.976h-21.945L261.289.1h45.057l17.477 60.708h.844L345.52 0h22.74" fill="#ec192d"/><path d="M358.032 9.731s6.95 19.066 15.143 42.332c7.746 22.094 14.895 41.21 15.938 43.806 0 .005.844 0 .844 0s18.967-54.411 25.173-76.208c.248-1.489.993-3.276-.298-5.312-1.34-2.185-4.42-3.625-6.802-3.823 0 0 .05-.298 0-2.135 0 0 10.377 1.142 18.619 1.092 8.241 0 17.874-1.092 18.519-1.092v2.135c-.298.05-5.462.894-8.738 3.525-1.688 1.34-4.072 4.419-4.866 6.057-3.525 7.05-4.915 11.767-17.08 44.378-18.618 50.22-23.633 65.195-23.633 65.195h-2.582s-8.54-22.357-18.122-48.399c-7.646-20.704-12.86-35.951-12.86-35.951h-.844s-5.163 15.247-12.81 35.951c-9.632 26.042-18.171 48.4-18.171 48.4h-2.384s-5.163-14.975-23.832-65.196c-12.124-32.61-13.56-37.327-17.084-44.378-.76-1.638-3.148-4.716-4.841-6.057-3.262-2.631-8.446-3.476-8.739-3.525V8.39c.656 0 10.298 1.092 18.52 1.092 8.222.05 18.648-1.092 18.648-1.092-.05 1.837 0 2.135 0 2.135-2.432.198-5.51 1.638-6.851 3.823-1.241 2.036-.497 3.823-.249 5.312 6.455 21.797 25.173 76.208 25.173 76.208s.844.04.894 0c1.043-2.596 8.093-21.712 15.888-43.806A3290.324 3290.324 0 01355.748 9.73h2.284" fill="#fff"/><path d="M47.108 185.13c0-.243-.094-.337-.626-.337-1.052 0-2.348.194-3.937.194-1.872 0-2.592-.194-4.175-.194-.338 0-.527.144-.527.337 0 .288.288.432.72.432 1.39.05 2.066.527 2.066 1.346 0 1.152-.82 3.838-2.453 9.12-1.152 3.794-3.361 10.805-4.414 14.166-2.016-6.673-6.678-19.398-8.838-24.875-.337-.864-.526-1.246-.814-1.246-.293 0-.531.144-.77.914-.287.958-6.866 20.932-8.405 25.207-.914-2.498-3.456-10.273-4.032-12.05-.576-1.872-3.41-9.94-3.41-11.286 0-.625.337-1.246 2.015-1.296.338 0 .626-.144.626-.432 0-.143-.095-.337-.626-.337-.382 0-4.081.194-5.09.194-1.007 0-3.405-.194-3.693-.194-.482 0-.725.144-.725.337 0 .144.194.333.77.432 2.403.338 2.591.77 4.08 5.14.865 2.447 7.637 23.24 8.834 26.363.193.527.387.67.625.67.243 0 .432-.382.626-.863 2.497-7.155 6.722-19.835 8.406-25.45 2.254 6.434 8.112 23.096 8.882 25.643.144.477.387.67.626.67.238 0 .481-.193.625-.67.909-2.979 7.055-21.419 8.063-24.348 1.49-4.324 1.922-5.715 2.736-6.34.725-.576 1.54-.765 2.115-.815.626-.05.72-.243.72-.432" fill="#1b458f"/><path d="M87.16 201.167c0-8.405-5.57-16.856-16.612-16.856-11.385 0-16.712 9.22-16.712 17.482 0 7.155 4.895 15.943 16.424 15.943 11.136 0 16.9-8.45 16.9-16.569zm-3.892 1.49c0 10.422-7.005 13.445-12.387 13.445-6.147 0-13.158-5.089-13.158-16.374 0-10.084 6.822-13.783 11.961-13.783 7.443 0 13.584 7.11 13.584 16.712m45.862-1.49c0-8.405-5.57-16.856-16.613-16.856-11.38 0-16.712 9.22-16.712 17.482 0 7.155 4.9 15.943 16.424 15.943 11.137 0 16.901-8.45 16.901-16.569zm-3.888 1.49c0 10.422-7.01 13.445-12.392 13.445-6.142 0-13.152-5.089-13.152-16.374 0-10.084 6.816-13.783 11.955-13.783 7.443 0 13.59 7.11 13.59 16.712" fill="#1b458f" fill-rule="evenodd"/><path d="M159 211.683c0-.288-.094-.432-.288-.432-.19 0-.288.338-.383.576-.963 3.074-1.583 3.794-7.254 3.794-5.327 0-5.476-.864-5.52-4.752 0-1.152-.05-3.505-.05-10.76 0-12.243.05-13.156.526-13.732.481-.626 1.3-.864 2.69-.864.433 0 .626-.194.626-.383 0-.193-.144-.337-.675-.337-1.39 0-2.254.194-4.945.194-2.686 0-3.793-.194-4.99-.194-.531 0-.675.144-.675.337 0 .19.193.383.625.383 1.39 0 2.21.238 2.686.864.482.576.532 1.49.532 13.733 0 13.113-.144 14.84-.72 15.61-.576.72-1.296.814-2.448.814-.432 0-.725.144-.725.387 0 .144.149.333.626.333 1.25 0 3.217-.189 5.908-.189 2.353 0 11.911.239 12.388.239.72 0 .963-.144 1.201-.72.338-.82.864-4.18.864-4.9m51.22-26.554c0-.243-.094-.337-.621-.337-1.057 0-2.353.194-3.942.194-1.872 0-2.592-.194-4.176-.194-.332 0-.526.144-.526.337 0 .288.288.432.72.432 1.39.05 2.065.527 2.065 1.346 0 1.152-.819 3.838-2.452 9.12-1.152 3.794-3.362 10.805-4.414 14.166-2.021-6.673-6.678-19.398-8.838-24.875-.338-.864-.531-1.246-.82-1.246-.287 0-.525.144-.764.914-.288.958-6.866 20.932-8.406 25.207-.913-2.498-3.455-10.273-4.031-12.05-.576-1.872-3.411-9.94-3.411-11.286 0-.625.337-1.246 2.016-1.296.337 0 .625-.144.625-.432 0-.143-.094-.337-.625-.337-.383 0-4.082.194-5.09.194-1.007 0-3.41-.194-3.698-.194-.477 0-.72.144-.72.337 0 .144.193.333.77.432 2.402.338 2.59.77 4.08 5.14.864 2.447 7.637 23.24 8.838 26.363.189.527.383.67.62.67.244 0 .433-.382.626-.863 2.498-7.155 6.723-19.835 8.406-25.45 2.254 6.434 8.113 23.096 8.883 25.643.144.477.387.67.625.67.239 0 .482-.193.626-.67.913-2.979 7.055-21.419 8.063-24.348 1.49-4.324 1.921-5.715 2.74-6.34.72-.576 1.535-.765 2.11-.815.626-.05.72-.243.72-.432" fill="#1b458f"/><path d="M250.271 201.167c0-8.405-5.57-16.856-16.612-16.856-11.385 0-16.713 9.22-16.713 17.482 0 7.155 4.896 15.943 16.425 15.943 11.136 0 16.9-8.45 16.9-16.569zm-3.887 1.49c0 10.422-7.01 13.445-12.388 13.445-6.152 0-13.162-5.089-13.162-16.374 0-10.084 6.817-13.783 11.956-13.783 7.447 0 13.594 7.11 13.594 16.712m45.266 14.165c0-.238-.099-.288-.298-.288-.347 0-.497.05-1.54.05-5.69 0-9.67-7.83-13.752-14.071 2.929-2.115 4.846-5.332 4.846-9.32 0-3.167-1.917-8.306-9.171-8.306-1.728 0-3.694.1-6.097.1-2.641 0-4.558-.194-5.764-.194-.526 0-.67.144-.67.337 0 .19.193.383.625.383 1.39 0 2.205.238 2.691.864.477.576.526 1.49.526 13.733 0 13.112-.143 14.84-.72 15.61-.58.72-1.3.814-2.452.814-.432 0-.72.144-.72.387 0 .144.149.333.625.333 1.247 0 2.349-.189 5.045-.189 2.69 0 4.32.19 5.57.19.477 0 .621-.19.621-.334 0-.243-.288-.387-.72-.387-1.727 0-2.547-.382-2.93-.814-.719-.77-.719-.72-.719-11.767 0-.482.194-.482.531-.432 1.584.337 3.6.432 5.71.193 4.95 7.299 7.348 13.828 14.215 13.828 1.817 0 4.548-.189 4.548-.72zm-14.2-21.32c0 1.296-.189 3.65-1.633 5.283-1.153 1.296-2.642 1.678-4.176 1.678-2.21 0-3.843-.382-4.419-.576-.482-.188-.526-.188-.576-.526-.045-.338-.045-5.233-.045-8.55v-5.809c0-.481.14-.576.576-.625.864-.045 1.723-.144 3.55-.144 4.85 0 6.723 4.756 6.723 9.27" fill="#1b458f" fill-rule="evenodd"/><path d="M318.808 184.793c0-.432-.05-.482-.297-.482-.398 0-.546.676-13.505.676-10.178 0-11.817-.676-12.115-.676-.397 0-.496.288-1.042 2.786-.15.675-.497 2.596-.497 2.785 0 .243.149.432.298.432.347 0 .298-.238.447-.526 1.34-2.835 1.787-3.024 6.007-3.024h5.114v18.629c0 7.88-.05 9.557-.744 10.327-.497.526-1.341.814-2.93.814-.447 0-.744.144-.744.387 0 .144.149.333.645.333 1.241 0 2.93-.189 5.61-.189 2.682 0 4.32.19 5.561.19.497 0 .646-.19.646-.334 0-.243-.298-.387-.745-.387-1.688 0-2.433-.288-2.93-.814-.695-.82-.744-2.448-.744-10.327v-18.629h6.852c1.44 0 2.383 0 3.028.909.348.432.397.963.397 2.209 0 .194.1.432.398.432.148 0 .198-.238.297-.576.398-1.584.993-4.464.993-4.945m40.763 32.128c0-.243-.298-.387-.744-.387-1.142 0-1.837-.094-2.433-.814-.596-.77-.745-2.497-.745-15.61 0-12.244.05-13.157.546-13.733.397-.527 1.043-.864 2.483-.864.446 0 .645-.194.645-.383 0-.193-.149-.337-.695-.337-1.39 0-2.036.194-4.717.194-2.73 0-3.674-.194-4.865-.194-.547 0-.696.144-.696.337 0 .19.2.383.646.383 1.192 0 2.085.288 2.532.864.447.576.546 1.44.546 12.63h-18.122c0-11.19.099-12.054.546-12.63.397-.527 1.043-.864 2.482-.864.447 0 .646-.194.646-.383 0-.193-.15-.337-.695-.337-1.39 0-2.036.194-4.767.194-2.68 0-3.624-.194-4.816-.194-.546 0-.695.144-.695.337 0 .19.199.383.646.383 1.191 0 2.085.288 2.532.864.496.576.546 1.49.546 13.733 0 13.113-.15 14.84-.745 15.61-.546.72-1.29.814-2.433.814-.447 0-.744.144-.744.387 0 .144.149.333.645.333 1.241 0 2.383-.189 5.064-.189 2.731 0 3.824.19 5.065.19.496 0 .596-.19.596-.334 0-.243-.249-.387-.695-.387-1.142 0-1.887-.094-2.433-.814-.596-.72-.745-2.448-.745-15.034h18.122c0 12.586-.149 14.314-.745 15.034-.546.72-1.29.814-2.433.814-.446 0-.744.144-.744.387 0 .144.149.333.645.333 1.241 0 2.383-.189 5.114-.189 2.681 0 3.774.19 5.015.19.496 0 .645-.19.645-.334m25.868-8.505c0-7.487-13.157-10.704-13.157-17.764 0-2.16 1.44-4.9 5.163-4.9 3.277 0 5.86.913 5.86 4.13 0 .338 0 .82.297.82.298 0 .447-.433.447-.82 0-2.785.149-3.118.149-4.657 0-.576-.348-.482-1.54-.576-.645-.05-2.581-.338-4.964-.338-6.306 0-8.441 4.563-8.441 8.019 0 9.27 13.108 11.816 13.108 18.008 0 3.46-3.178 5.958-6.157 5.958-5.461 0-6.256-2.93-6.653-5.57-.05-.388-.149-.82-.397-.82-.1 0-.348.1-.397.913-.05 1.296-.1 2.642-.1 4.325 0 .864.05 1.246.696 1.49 1.34.526 3.326 1.102 6.404 1.102 4.32 0 9.682-3.168 9.682-9.32m60.225-6.866c0-.189-.148-.333-.645-.333-1.787 0-2.78.189-4.766.189-1.986 0-3.526-.189-4.717-.189-.546 0-.695.144-.695.333 0 .193.199.387.645.387 1.39 0 2.235.238 2.682.864.496.576.546 1.921.546 10.566 0 1.295-.15 1.534-1.093 1.871-1.191.383-3.773.676-5.908.676-6.802 0-14.349-4.9-14.349-16.668 0-10.566 7.894-13.301 13.058-13.301 3.972 0 7.1.864 8.788 2.115 1.34.958 2.135 2.448 2.135 4.414 0 .337 0 .819.298.819s.447-.432.496-.82c.1-1.007.497-4.99.497-6.528 0-.576-.397-.482-1.589-.576-1.936-.144-6.454-1.058-10.476-1.058-10.973 0-17.08 8.262-17.08 17 0 6.098 3.575 16.425 17.328 16.425 3.575 0 6.355-.527 8.391-.815 2.681-.387 3.376-.144 3.376-.77 0-.431-.297-.625-.297-2.784 0-8.744-.05-9.796.546-10.566.546-.67 1.49-.864 2.184-.864.447 0 .645-.194.645-.387" fill="#1b458f"/><path d="M487.073 216.822c0-.238-.1-.288-.348-.288-.347 0-.496.05-1.49.05-5.709 0-9.73-7.83-13.802-14.071 2.93-2.115 4.866-5.332 4.866-9.32 0-3.167-1.937-8.306-9.186-8.306-1.737 0-3.674.1-6.106.1-2.632 0-4.568-.194-5.76-.194-.496 0-.645.144-.645.337 0 .19.198.383.595.383 1.39 0 2.235.238 2.731.864.447.576.497 1.49.497 13.733 0 13.112-.15 14.84-.695 15.61-.596.72-1.341.814-2.483.814-.447 0-.695.144-.695.387 0 .144.149.333.596.333 1.24 0 2.383-.189 5.064-.189s4.32.19 5.56.19c.498 0 .646-.19.646-.334 0-.243-.297-.387-.744-.387-1.738 0-2.532-.382-2.93-.814-.695-.77-.695-.72-.695-11.767 0-.482.199-.482.497-.432 1.588.337 3.624.432 5.71.193 4.964 7.299 7.348 13.828 14.25 13.828 1.786 0 4.567-.189 4.567-.72zm-14.25-21.32c0 1.296-.198 3.65-1.638 5.283-1.142 1.296-2.631 1.678-4.17 1.678-2.186 0-3.824-.382-4.42-.576-.446-.188-.496-.188-.546-.526-.05-.338-.05-5.233-.05-8.55v-5.809c0-.481.15-.576.546-.625.894-.045 1.738-.144 3.575-.144 4.866 0 6.703 4.756 6.703 9.27m51.189 5.664c0-8.405-5.56-16.856-16.582-16.856-11.42 0-16.733 9.22-16.733 17.482 0 7.155 4.916 15.943 16.434 15.943 11.122 0 16.881-8.45 16.881-16.569zm-3.872 1.49c0 10.422-7 13.445-12.413 13.445-6.107 0-13.157-5.089-13.157-16.374 0-10.084 6.852-13.783 11.966-13.783 7.447 0 13.604 7.11 13.604 16.712" fill="#1b458f" fill-rule="evenodd"/><path d="M564.13 185.13c0-.143-.15-.337-.646-.337-1.241 0-1.49.194-4.17.194-2.681 0-2.93-.194-4.171-.194-.496 0-.645.194-.645.337 0 .239.298.383.745.383 1.29 0 1.985.193 2.333.819.447.67.496 1.102.496 18.822 0 2.88-.397 5.328-1.787 7.299-1.936 2.736-4.965 3.65-7.646 3.65-5.064 0-9.235-2.98-9.235-10.566 0-3.074.05-9.409.05-14.31 0-3.649.149-4.369.447-4.85.447-.626 1.29-.864 2.73-.864.398 0 .596-.194.596-.383 0-.193-.148-.337-.645-.337-1.39 0-2.284.194-4.965.194s-3.823-.194-5.014-.194c-.497 0-.646.144-.646.337 0 .19.199.383.596.383 1.39 0 2.234.238 2.68.864.497.576.597 1.584.597 4.18 0 2.637-.05 12.676-.05 15.7 0 8.743 7.248 11.479 12.61 11.479 3.774 0 7.25-1.202 9.782-4.226 1.887-2.308 2.383-5.382 2.383-9.319 0-15.655.15-17.094.695-17.859.397-.626 1.043-.82 2.135-.82.447 0 .745-.143.745-.382m29.939 8.595c0-4.37-2.88-8.883-9.632-8.883-1.34 0-4.32.145-6.058.145-3.028 0-4.17-.194-5.362-.194-.546 0-.695.144-.695.337 0 .19.199.383.645.383 1.39 0 2.185.238 2.682.864.496.576.546 1.49.546 13.733 0 13.113-.15 14.84-.745 15.61-.546.72-1.29.814-2.433.814-.446 0-.745.144-.745.387 0 .144.15.333.646.333 1.241 0 2.333-.189 5.015-.189 2.73 0 4.32.19 5.61.19.447 0 .596-.19.596-.334 0-.243-.298-.387-.695-.387-1.738 0-2.582-.382-2.93-.814-.744-.77-.744-1.107-.744-15.61 0-10.754 0-12.244.049-12.77.1-.914.198-.963.844-1.008.745-.05 1.39-.1 2.185-.1 4.27 0 7.943 3.268 7.943 9.797 0 4.419-2.88 6.916-6.504 6.916-1.986 0-2.631-.526-2.979-.526-.149 0-.248.144-.248.288 0 .332 1.49 1.052 3.476 1.052 3.674 0 9.533-2.254 9.533-10.034m48.955 0c0-4.37-2.93-8.883-9.682-8.883-1.34 0-4.32.145-6.057.145-3.029 0-4.17-.194-5.363-.194-.546 0-.695.144-.695.337 0 .19.199.383.646.383 1.39 0 2.234.238 2.681.864.497.576.546 1.49.546 13.733 0 13.113-.149 14.84-.745 15.61-.546.72-1.29.814-2.433.814-.446 0-.744.144-.744.387 0 .144.149.333.645.333 1.241 0 2.334-.189 5.065-.189 2.68 0 4.32.19 5.56.19.497 0 .596-.19.596-.334 0-.243-.248-.387-.695-.387-1.738 0-2.532-.382-2.93-.814-.744-.77-.744-1.107-.744-15.61 0-10.754 0-12.244.05-12.77.1-.914.199-.963.894-1.008.695-.05 1.34-.1 2.135-.1 4.27 0 7.944 3.268 7.944 9.797 0 4.419-2.88 6.916-6.504 6.916-1.937 0-2.632-.526-2.98-.526-.148 0-.247.144-.247.288 0 .332 1.538 1.052 3.475 1.052 3.724 0 9.583-2.254 9.583-10.034m29.143 17.958c0-.288-.099-.432-.297-.432-.199 0-.298.338-.398.576-.943 3.074-1.588 3.794-7.248 3.794-5.313 0-5.462-.864-5.512-4.752 0-1.152-.05-3.505-.05-10.76 0-12.243.05-13.156.497-13.732.496-.626 1.34-.864 2.73-.864.398 0 .596-.194.596-.383 0-.193-.149-.337-.645-.337-1.39 0-2.284.194-4.965.194s-3.773-.194-5.015-.194c-.496 0-.645.144-.645.337 0 .19.199.383.645.383 1.39 0 2.185.238 2.681.864.447.576.497 1.49.497 13.733 0 13.113-.149 14.84-.695 15.61-.596.72-1.291.814-2.483.814-.397 0-.695.144-.695.387 0 .144.149.333.646.333 1.24 0 3.177-.189 5.858-.189 2.383 0 11.916.239 12.413.239.695 0 .943-.144 1.191-.72.348-.82.894-4.18.894-4.9m36.493-1.728c0-.482-.149-.67-.297-.67-.15 0-.249.044-.398.67-.496 2.065-1.241 3.455-2.383 4.369-1.39 1.152-4.22 1.777-6.852 1.777-8.986 0-15.292-6.484-15.292-16.856 0-10.804 7.547-13.301 12.86-13.301 4.418 0 7.05.963 8.738 2.259 1.34 1.057 1.986 2.736 1.986 4.85 0 .333 0 .815.298.815s.447-.432.496-.814c.15-1.013.596-5.526.596-7.06 0-.577-.348-.482-1.589-.577-1.092-.099-6.206-1.107-10.327-1.107-12.76 0-16.93 10.327-16.93 17 0 8.55 4.716 16.519 18.866 16.519 3.476 0 8.242-.67 9.037-1.44.645-.576 1.191-5.233 1.191-6.434" fill="#1b458f"/></svg>