<svg xmlns="http://www.w3.org/2000/svg" fill="none" viewBox="0 0 500 250"><defs><marker id="a" markerHeight="7" markerWidth="7" orient="auto" refX="9" refY="5" viewBox="0 0 10 10"><path fill="#e53834" d="m0 1 9 4-9 4z"/></marker><marker id="b" markerHeight="7" markerWidth="7" orient="auto" refX="1" refY="5" viewBox="0 0 10 10"><path fill="#e53834" d="M10 1 1 5l9 4z"/></marker></defs><rect width="210" height="56" x="145" y="8" fill="#f8f9fa" stroke="#e53834" stroke-width="1.5" rx="8"/><g transform="translate(232,17) scale(0.11290,0.11268)"><path d="M3 71c22-65 40-65 62 0s40 65 62 0 40-65 62 0 40 65 62 0 40-65 62 0" fill="none" stroke="#bdbdbd" stroke-width="6.55" stroke-linecap="round"/><path d="M33 71c22-65 40-65 62 0s40 65 62 0 40-65 62 0 40 65 62 0" fill="none" stroke="#e53834" stroke-width="6.55" stroke-linecap="round"/></g><text x="250" y="50" fill="#e53834" font-family="Manrope, sans-serif" font-size="12" font-weight="700" text-anchor="middle">Your Fraud Data Platform</text><rect width="108" height="56" x="14" y="170" fill="#eef4fa" stroke="#9aa0a6" stroke-width="1.5" rx="8"/><path stroke="#2d6da3" stroke-linecap="round" stroke-linejoin="round" stroke-width=".9" d="M58.25 193.75h13.5m-13.5-8.25h13.5m-12-3 5.25-2.25 5.25 2.25m-11.25 3v8.25m12-8.25v8.25m-9-5.25v3m3-3v3m3-3v3"/><text x="68" y="210" fill="#1a1a1a" font-family="Manrope, sans-serif" font-size="12" font-weight="700" text-anchor="middle">Peer Bank</text><rect width="108" height="56" x="136" y="170" fill="#eef4fa" stroke="#9aa0a6" stroke-width="1.5" rx="8"/><path stroke="#2d6da3" stroke-linecap="round" stroke-linejoin="round" stroke-width=".9" d="M180.25 193.75h13.5m-13.5-8.25h13.5m-12-3 5.25-2.25 5.25 2.25m-11.25 3v8.25m12-8.25v8.25m-9-5.25v3m3-3v3m3-3v3"/><text x="190" y="210" fill="#1a1a1a" font-family="Manrope, sans-serif" font-size="12" font-weight="700" text-anchor="middle">Peer Bank</text><rect width="108" height="56" x="258" y="170" fill="#eef4fa" stroke="#9aa0a6" stroke-width="1.5" rx="8"/><path stroke="#2d6da3" stroke-linecap="round" stroke-linejoin="round" stroke-width=".9" d="M302.25 193.75h13.5m-13.5-8.25h13.5m-12-3 5.25-2.25 5.25 2.25m-11.25 3v8.25m12-8.25v8.25m-9-5.25v3m3-3v3m3-3v3"/><text x="312" y="210" fill="#1a1a1a" font-family="Manrope, sans-serif" font-size="12" font-weight="700" text-anchor="middle">Peer Bank</text><rect width="108" height="56" x="380" y="170" fill="#edf6f4" stroke="#9aa0a6" stroke-width="1.5" rx="8"/><path stroke="#1a8a7a" stroke-linecap="round" stroke-linejoin="round" stroke-width=".9" d="M431 180.25v13.5m-3 0h6m-9-10.5h12m-12 0-1.5 4.5c0 .825 1.35 1.5 3 1.5s3-.675 3-1.5l-1.5-4.5m6 0-1.5 4.5c0 .825 1.35 1.5 3 1.5s3-.675 3-1.5l-1.5-4.5"/><text x="434" y="210" fill="#1a1a1a" font-family="Manrope, sans-serif" font-size="12" font-weight="700" text-anchor="middle">Regulator</text><path stroke="#e53834" stroke-width="1.5" marker-end="url(#a)" marker-start="url(#b)" d="M200 64 68 170"/><path stroke="#e53834" stroke-width="1.5" marker-end="url(#a)" marker-start="url(#b)" d="m225 64-35 106"/><path stroke="#e53834" stroke-width="1.5" marker-end="url(#a)" marker-start="url(#b)" d="m275 64 37 106"/><path stroke="#e53834" stroke-width="1.5" marker-end="url(#a)" marker-start="url(#b)" d="m300 64 134 106"/></svg>