<svg xmlns="http://www.w3.org/2000/svg" fill="none" viewBox="0 0 850 340">
<defs>
  <marker id="a" markerHeight="7" markerWidth="7" orient="auto-start-reverse" refX="9" refY="5" viewBox="0 0 10 10"><path fill="#e53834" d="m0 1 9 4-9 4z"/></marker>
</defs>

<!-- ===== LAYER 1: CONNECTIONS (straight lines) ===== -->

<!-- Tools → Cosive Integrations (bidirectional) -->
<path stroke="#e53834" stroke-width="1.5" marker-start="url(#a)" marker-end="url(#a)" d="M165 50 L280 170"/>
<path stroke="#e53834" stroke-width="1.5" marker-start="url(#a)" marker-end="url(#a)" d="M165 130 L280 170"/>
<path stroke="#e53834" stroke-width="1.5" marker-start="url(#a)" marker-end="url(#a)" d="M165 210 L280 170"/>
<path stroke="#e53834" stroke-width="1.5" marker-start="url(#a)" marker-end="url(#a)" d="M165 290 L280 170"/>

<!-- Cosive Integrations → Case Management -->
<path stroke="#e53834" stroke-width="1.5" marker-start="url(#a)" marker-end="url(#a)" d="M440 170 L520 170"/>

<!-- Fraud Analyst → Case Management (straight line) -->
<path stroke="#e53834" stroke-width="1.5" marker-start="url(#a)" marker-end="url(#a)" d="M670 170 L748 170"/>

<!-- ===== LAYER 2: NODES ===== -->

<!-- Transaction Monitoring (left, top) -->
<rect width="150" height="64" x="15" y="18" fill="#eef4fa" stroke="#9aa0a6" stroke-width="1.5" rx="8"/>
<path stroke="#2d6da3" stroke-linecap="round" stroke-linejoin="round" stroke-width=".9" d="M84 43h13m-11 0v-5m4 5v-10m4 10v-7"/>
<text x="90" y="58" fill="#1a1a1a" font-family="Manrope, sans-serif" font-size="12" font-weight="700" text-anchor="middle">Transaction</text>
<text x="90" y="70" fill="#1a1a1a" font-family="Manrope, sans-serif" font-size="12" font-weight="700" text-anchor="middle">Monitoring</text>

<!-- Fraud Intelligence (left, second) -->
<rect width="150" height="64" x="15" y="98" fill="#eef4fa" stroke="#9aa0a6" stroke-width="1.5" rx="8"/>
<circle cx="88" cy="119" r="5" stroke="#2d6da3" stroke-width=".9" fill="none"/>
<line x1="92" y1="123" x2="96" y2="127" stroke="#2d6da3" stroke-width=".9" stroke-linecap="round"/>
<text x="90" y="138" fill="#1a1a1a" font-family="Manrope, sans-serif" font-size="12" font-weight="700" text-anchor="middle">Fraud</text>
<text x="90" y="150" fill="#1a1a1a" font-family="Manrope, sans-serif" font-size="12" font-weight="700" text-anchor="middle">Intelligence</text>

<!-- Identity Verification (left, third) -->
<rect width="150" height="64" x="15" y="178" fill="#eef4fa" stroke="#9aa0a6" stroke-width="1.5" rx="8"/>
<path stroke="#2d6da3" stroke-linecap="round" stroke-linejoin="round" stroke-width=".9" fill="none" d="M90 193l-5 2v5c0 3 5 5 5 5s5-2 5-5v-5z"/>
<text x="90" y="218" fill="#1a1a1a" font-family="Manrope, sans-serif" font-size="12" font-weight="700" text-anchor="middle">Identity</text>
<text x="90" y="230" fill="#1a1a1a" font-family="Manrope, sans-serif" font-size="12" font-weight="700" text-anchor="middle">Verification</text>

<!-- AML Screening (left, bottom) -->
<rect width="150" height="64" x="15" y="258" fill="#eef4fa" stroke="#9aa0a6" stroke-width="1.5" rx="8"/>
<rect x="84" y="272" width="12" height="14" rx="1" stroke="#2d6da3" stroke-width=".9" fill="none"/>
<path stroke="#2d6da3" stroke-linecap="round" stroke-width=".9" fill="none" d="M87 277l1.5 1.5 3-3m-4.5 5.5l1.5 1.5 3-3"/>
<text x="90" y="298" fill="#1a1a1a" font-family="Manrope, sans-serif" font-size="12" font-weight="700" text-anchor="middle">AML</text>
<text x="90" y="310" fill="#1a1a1a" font-family="Manrope, sans-serif" font-size="12" font-weight="700" text-anchor="middle">Screening</text>

<!-- Cosive Integrations (accent-coloured hub) -->
<rect width="160" height="64" x="280" y="138" fill="#fef2f2" stroke="#e53834" stroke-width="1.5" rx="8"/>
<text x="360" y="166" fill="#e53834" font-family="Manrope, sans-serif" font-size="12" font-weight="700" text-anchor="middle">Cosive</text>
<text x="360" y="180" fill="#e53834" font-family="Manrope, sans-serif" font-size="12" font-weight="700" text-anchor="middle">Integrations</text>

<!-- Case Management -->
<rect width="150" height="64" x="520" y="138" fill="#eef4fa" stroke="#9aa0a6" stroke-width="1.5" rx="8"/>
<path stroke="#2d6da3" stroke-linecap="round" stroke-linejoin="round" stroke-width=".9" fill="none" d="M589 154h12v12h-12zm3 4h6m-6 3h4"/>
<text x="595" y="184" fill="#1a1a1a" font-family="Manrope, sans-serif" font-size="12" font-weight="700" text-anchor="middle">Case Management</text>

<!-- Fraud Analyst (standalone person icon) -->
<g transform="translate(745, 142) scale(1.5)" stroke="#2d6da3" stroke-width="1" stroke-linecap="round" stroke-linejoin="round" fill="none">
  <circle cx="12" cy="7" r="4"/>
  <path d="M20 21v-2a4 4 0 0 0-4-4H8a4 4 0 0 0-4 4v2"/>
</g>
<text x="763" y="198" fill="#1a1a1a" font-family="Manrope, sans-serif" font-size="12" font-weight="700" text-anchor="middle">Fraud</text>
<text x="763" y="210" fill="#1a1a1a" font-family="Manrope, sans-serif" font-size="12" font-weight="700" text-anchor="middle">Analyst</text>

<!-- ===== LAYER 3: CONNECTION LABELS ===== -->

<!-- Alerts & rule updates (TM ↔ Cosive) -->
<rect x="166" y="98" width="114" height="16" rx="2" fill="#fff"/>
<text x="223" y="110" font-family="Manrope, sans-serif" font-size="9.5" fill="#1a1a1a" font-weight="600" text-anchor="middle">Alerts &amp; rule updates</text>

<!-- Intel & indicators (Fraud Intelligence ↔ Cosive) -->
<rect x="170" y="138" width="106" height="16" rx="2" fill="#fff"/>
<text x="223" y="150" font-family="Manrope, sans-serif" font-size="9.5" fill="#1a1a1a" font-weight="600" text-anchor="middle">Intel &amp; indicators</text>

<!-- Verification results (Identity Verification ↔ Cosive) -->
<rect x="165" y="178" width="116" height="16" rx="2" fill="#fff"/>
<text x="223" y="190" font-family="Manrope, sans-serif" font-size="9.5" fill="#1a1a1a" font-weight="600" text-anchor="middle">Verification results</text>

<!-- Screening results (AML Screening ↔ Cosive) -->
<rect x="173" y="218" width="100" height="16" rx="2" fill="#fff"/>
<text x="223" y="230" font-family="Manrope, sans-serif" font-size="9.5" fill="#1a1a1a" font-weight="600" text-anchor="middle">Screening results</text>
</svg>
